<?xml version="1.0" encoding="UTF-8"?>
<svg xmlns="http://www.w3.org/2000/svg" viewBox="0 0 694.2 251.89">
  <defs>
    <style>
      .cls-1, .cls-2 {
        fill: #b76f95;
      }

      .cls-3 {
        fill: none;
        stroke-width: 32px;
      }

      .cls-3, .cls-2 {
        stroke: #b76f95;
        stroke-linecap: round;
        stroke-miterlimit: 10;
      }

      .cls-3, .cls-4 {
        opacity: .5;
      }
    </style>
  </defs>
  <g id="Lower_Lash_Left" data-name="Lower Lash Left">
    <polygon class="cls-2" points="143.8 250.01 133.19 211.6 154.41 211.6 143.8 250.01"/>
  </g>
  <g id="Lower_Lid_Left" data-name="Lower Lid Left">
    <path class="cls-1" d="M34.69,161.04c62.82,37.92,130.15,43.8,196.51,10.79,6.55-3.25,13.56-7.22,19.98-10.79-4.6,7.86-10.35,15.09-16.92,21.42-55.26,54.67-158.54,46.17-199.56-21.42h0Z"/>
  </g>
  <g id="Pupil_Left" data-name="Pupil Left">
    <g>
      <circle class="cls-3" cx="143.01" cy="112.35" r="45.77"/>
      <circle class="cls-1" cx="143.01" cy="112.35" r="24.91"/>
    </g>
  </g>
  <g id="Upper_Lid_Left" data-name="Upper Lid Left">
    <path class="cls-1" d="M0,127.34c10.77-27.25,32.23-48.92,57.31-63.8,72.67-44.04,182.84-23.43,224.17,53.88,1.57,3.29,3.12,6.52,4.39,9.92-3.52-1.16-6.77-2.48-9.99-3.76-9.43-3.58-18.68-7.01-28.16-10.17-72.46-24.76-147-23.3-218.79,3.09-9.69,3.43-19.11,7.28-28.92,10.83h0Z"/>
  </g>
  <g id="Upper_Lash_Left" data-name="Upper Lash Left">
    <polygon class="cls-2" points="143.01 1.88 127.38 58.47 158.64 58.47 143.01 1.88"/>
    <polygon class="cls-2" points="20.23 55.02 35.66 91.76 52.33 78.63 20.23 55.02"/>
    <polygon class="cls-2" points="266.66 55.93 233.1 77.41 248.88 91.6 266.66 55.93"/>
  </g>
  <g id="Lower_Lid_Right" data-name="Lower Lid Right">
    <g class="cls-4">
      <path class="cls-1" d="M432.38,151.85c61.57,41.37,133.15,49.25,200.2,15.73,4.16-2.05,9.63-5.08,13.68-7.39,3.88-2.28,9.7-5.96,13.56-8.34-50.79,76.57-176.62,76.47-227.44,0h0Z"/>
    </g>
  </g>
  <g id="Lashes_Right" data-name="Lashes Right">
    <g>
      <polygon class="cls-2" points="546.03 245.13 525.13 169.43 566.94 169.43 546.03 245.13"/>
      <polygon class="cls-2" points="417.05 173.06 433.25 134.46 450.77 148.25 417.05 173.06"/>
      <polygon class="cls-2" points="675.94 172.1 640.68 149.53 657.26 134.63 675.94 172.1"/>
    </g>
  </g>
  <g id="Upper_Lid_Right" data-name="Upper Lid Right">
    <path class="cls-1" d="M393.86,95.29c10.18,3.89,19.98,8.08,30.06,11.82,75.45,28.96,154.37,30.54,230.57,3.38,9.9-3.44,19.53-7.19,29.35-11.1,3.34-1.39,6.72-2.83,10.35-4.1-1.4,3.52-3.06,6.87-4.76,10.27-44.3,80-158.71,101.27-234.95,55.75-26.29-15.38-48.87-37.77-60.63-66.01h0Z"/>
  </g>
</svg>