<?xml version="1.0" encoding="UTF-8"?>
<svg xmlns="http://www.w3.org/2000/svg" viewBox="0 0 483.38 241.85">
  <defs>
    <style>
      .cls-1, .cls-2 {
        fill: #b76f95;
      }

      .cls-2 {
        stroke: #b76f95;
        stroke-linecap: round;
        stroke-miterlimit: 10;
      }

      .cls-3 {
        opacity: .5;
      }
    </style>
  </defs>
  <g id="Lower_Lid" data-name="Lower Lid">
    <g class="cls-3">
      <path class="cls-1" d="M60.41,91.08c94.67,74.38,218.29,87.45,323.96,27.93,7.27-4.12,14.39-8.52,21.4-13.13,5.93-3.99,14.92-10.53,20.69-14.8-88.56,114.77-277.47,114.66-366.05,0h0Z"/>
    </g>
  </g>
  <g id="Upper_Lid" data-name="Upper Lid">
    <path class="cls-1" d="M0,0c5.17,2.74,10.07,5.64,14.94,8.5,9.8,5.46,19.64,10.71,29.54,15.76,122.66,62.82,263.25,64.52,386.96,3.52,0,0,3.73-1.75,3.73-1.75,0,0,1.87-.88,1.87-.88,0,0,1.83-.94,1.83-.94,9.9-5.05,19.74-10.28,29.56-15.73,4.88-2.85,9.79-5.75,14.96-8.48-2.93,4.98-6.13,9.78-9.36,14.65-5.12,6.91-10.47,14.03-16.37,20.38-2.9,3.19-5.88,6.6-8.99,9.62-105.39,107.05-294.02,110.43-404.36,9.07-4.18-4-8.65-8.04-12.62-12.25C19.66,28.85,8.81,15,0,0h0Z"/>
  </g>
  <g id="Upper_Lash" data-name="Upper Lash">
    <g>
      <polygon class="cls-2" points="243.88 239.98 210.22 118.13 277.53 118.13 243.88 239.98"/>
      <polygon class="cls-2" points="36.27 123.97 62.36 61.85 90.54 84.04 36.27 123.97"/>
      <polygon class="cls-2" points="452.96 122.42 396.2 86.1 422.89 62.12 452.96 122.42"/>
    </g>
  </g>
</svg>